{
  "accessors": [
    {
      "bufferView": 2,
      "componentType": 5126,
      "count": 3168,
      "max": [
        0.11767203360795975,
        0.17741961777210236,
        0.22259613871574402
      ],
      "min": [
        -0.13902635872364044,
        -0.9814725518226624,
        -0.13757677376270294
      ],
      "type": "VEC3"
    },
    {
      "bufferView": 2,
      "byteOffset": 38016,
      "componentType": 5126,
      "count": 3168,
      "max": [
        1.0,
        1.0,
        1.0
      ],
      "min": [
        -1.0,
        -1.0,
        -1.0
      ],
      "type": "VEC3"
    },
    {
      "bufferView": 3,
      "componentType": 5126,
      "count": 3168,
      "max": [
        1.0,
        1.0,
        1.0,
        1.0
      ],
      "min": [
        -1.0,
        -1.0,
        -1.0,
        -1.0
      ],
      "type": "VEC4"
    },
    {
      "bufferView": 1,
      "componentType": 5126,
      "count": 3168,
      "max": [
        0.9978411793708801,
        0.9942355155944824
      ],
      "min": [
        0.0016226769657805562,
        0.0016227364540100098
      ],
      "type": "VEC2"
    },
    {
      "bufferView": 0,
      "componentType": 5125,
      "count": 9951,
      "type": "SCALAR"
    },
    {
      "bufferView": 2,
      "byteOffset": 76032,
      "componentType": 5126,
      "count": 2031,
      "max": [
        0.11500000208616257,
        0.03454170376062393,
        0.18078415095806122
      ],
      "min": [
        -0.11500000208616257,
        -0.18545831739902496,
        -0.04921584948897362
      ],
      "type": "VEC3"
    },
    {
      "bufferView": 2,
      "byteOffset": 100404,
      "componentType": 5126,
      "count": 2031,
      "max": [
        1.0,
        1.0,
        1.0
      ],
      "min": [
        -1.0,
        -1.0,
        -1.0
      ],
      "type": "VEC3"
    },
    {
      "bufferView": 3,
      "byteOffset": 50688,
      "componentType": 5126,
      "count": 2031,
      "max": [
        1.0,
        1.0,
        1.0,
        1.0
      ],
      "min": [
        -1.0,
        -1.0,
        -1.0,
        1.0
      ],
      "type": "VEC4"
    },
    {
      "bufferView": 1,
      "byteOffset": 25344,
      "componentType": 5126,
      "count": 2031,
      "max": [
        0.9969598054885864,
        0.9923226833343506
      ],
      "min": [
        0.001631991472095251,
        0.0016458630561828613
      ],
      "type": "VEC2"
    },
    {
      "bufferView": 0,
      "byteOffset": 39804,
      "componentType": 5125,
      "count": 7488,
      "type": "SCALAR"
    },
    {
      "bufferView": 2,
      "byteOffset": 124776,
      "componentType": 5126,
      "count": 21509,
      "max": [
        -0.04709717631340027,
        -0.2602260112762451,
        0.09493266046047211
      ],
      "min": [
        -0.07219361513853073,
        -0.8101762533187866,
        0.07055039703845978
      ],
      "type": "VEC3"
    },
    {
      "bufferView": 2,
      "byteOffset": 382884,
      "componentType": 5126,
      "count": 21509,
      "max": [
        1.0,
        1.0,
        1.0
      ],
      "min": [
        -1.0,
        -1.0,
        -1.0
      ],
      "type": "VEC3"
    },
    {
      "bufferView": 3,
      "byteOffset": 83184,
      "componentType": 5126,
      "count": 21509,
      "max": [
        0.9973727464675903,
        0.9997916221618652,
        1.0,
        1.0
      ],
      "min": [
        -1.0,
        -1.0,
        -0.9929240345954895,
        1.0
      ],
      "type": "VEC4"
    },
    {
      "bufferView": 1,
      "byteOffset": 41592,
      "componentType": 5126,
      "count": 21509,
      "max": [
        0.9981549382209778,
        0.976249635219574
      ],
      "min": [
        0.0016282498836517334,
        0.001624769065529108
      ],
      "type": "VEC2"
    },
    {
      "bufferView": 0,
      "byteOffset": 69756,
      "componentType": 5125,
      "count": 88056,
      "type": "SCALAR"
    },
    {
      "bufferView": 2,
      "byteOffset": 640992,
      "componentType": 5126,
      "count": 874,
      "max": [
        0.04501990228891373,
        0.5894591212272644,
        0.017128150910139084
      ],
      "min": [
        -0.04501990228891373,
        0.1738356351852417,
        -0.46657848358154297
      ],
      "type": "VEC3"
    },
    {
      "bufferView": 2,
      "byteOffset": 651480,
      "componentType": 5126,
      "count": 874,
      "max": [
        1.0,
        1.0,
        1.0
      ],
      "min": [
        -1.0,
        -1.0,
        -0.9998350143432617
      ],
      "type": "VEC3"
    },
    {
      "bufferView": 3,
      "byteOffset": 427328,
      "componentType": 5126,
      "count": 874,
      "max": [
        1.0,
        0.9999999403953552,
        0.9115964770317078,
        1.0
      ],
      "min": [
        -1.0,
        -0.999840497970581,
        -1.0,
        -1.0
      ],
      "type": "VEC4"
    },
    {
      "bufferView": 1,
      "byteOffset": 213664,
      "componentType": 5126,
      "count": 874,
      "max": [
        0.9945159554481506,
        0.9330289363861084
      ],
      "min": [
        0.05065849795937538,
        0.001624464988708496
      ],
      "type": "VEC2"
    },
    {
      "bufferView": 0,
      "byteOffset": 421980,
      "componentType": 5125,
      "count": 3288,
      "type": "SCALAR"
    },
    {
      "bufferView": 2,
      "byteOffset": 661968,
      "componentType": 5126,
      "count": 1104,
      "max": [
        0.01761564053595066,
        0.2646031975746155,
        0.22940602898597717
      ],
      "min": [
        -0.01757999137043953,
        0.06531322002410889,
        -0.11666382849216461
      ],
      "type": "VEC3"
    },
    {
      "bufferView": 2,
      "byteOffset": 675216,
      "componentType": 5126,
      "count": 1104,
      "max": [
        1.0,
        0.9991626739501953,
        0.998958945274353
      ],
      "min": [
        -1.0,
        -0.9996998310089111,
        -0.9997192621231079
      ],
      "type": "VEC3"
    },
    {
      "bufferView": 3,
      "byteOffset": 441312,
      "componentType": 5126,
      "count": 1104,
      "max": [
        1.0,
        0.9996488690376282,
        0.9978066682815552,
        1.0
      ],
      "min": [
        -1.0,
        -0.998958945274353,
        -0.9997021555900574,
        1.0
      ],
      "type": "VEC4"
    },
    {
      "bufferView": 1,
      "byteOffset": 220656,
      "componentType": 5126,
      "count": 1104,
      "max": [
        0.8735249042510986,
        0.9935123324394226
      ],
      "min": [
        0.17171330749988556,
        0.17960424721240997
      ],
      "type": "VEC2"
    },
    {
      "bufferView": 0,
      "byteOffset": 435132,
      "componentType": 5125,
      "count": 5184,
      "type": "SCALAR"
    },
    {
      "bufferView": 2,
      "byteOffset": 688464,
      "componentType": 5126,
      "count": 378,
      "max": [
        0.04009440913796425,
        0.1763862520456314,
        -0.0941087156534195
      ],
      "min": [
        -0.04009440913796425,
        -0.202302947640419,
        -0.27899879217147827
      ],
      "type": "VEC3"
    },
    {
      "bufferView": 2,
      "byteOffset": 693000,
      "componentType": 5126,
      "count": 378,
      "max": [
        1.0,
        0.9994080662727356,
        0.9973713159561157
      ],
      "min": [
        -1.0,
        -0.9999759197235107,
        -0.9988929033279419
      ],
      "type": "VEC3"
    },
    {
      "bufferView": 3,
      "byteOffset": 458976,
      "componentType": 5126,
      "count": 378,
      "max": [
        1.0,
        0.9706225991249084,
        0.9999759793281555,
        1.0
      ],
      "min": [
        -1.0,
        -0.9988929033279419,
        -0.9929004907608032,
        1.0
      ],
      "type": "VEC4"
    },
    {
      "bufferView": 1,
      "byteOffset": 229488,
      "componentType": 5126,
      "count": 378,
      "max": [
        0.9980063438415527,
        0.9909985065460205
      ],
      "min": [
        0.029668014496564865,
        0.0016287389444187284
      ],
      "type": "VEC2"
    },
    {
      "bufferView": 0,
      "byteOffset": 455868,
      "componentType": 5125,
      "count": 1164,
      "type": "SCALAR"
    },
    {
      "bufferView": 2,
      "byteOffset": 697536,
      "componentType": 5126,
      "count": 408,
      "max": [
        0.012500002048909664,
        0.09203007817268372,
        -0.06798847019672394
      ],
      "min": [
        -0.012500002048909664,
        0.030058085918426514,
        -0.2558344602584839
      ],
      "type": "VEC3"
    },
    {
      "bufferView": 2,
      "byteOffset": 702432,
      "componentType": 5126,
      "count": 408,
      "max": [
        1.0,
        0.9998538494110107,
        0.829977810382843
      ],
      "min": [
        -1.0,
        -0.9999650120735168,
        -0.852153480052948
      ],
      "type": "VEC3"
    },
    {
      "bufferView": 3,
      "byteOffset": 465024,
      "componentType": 5126,
      "count": 408,
      "max": [
        1.0,
        0.9929177761077881,
        0.9999650716781616,
        1.0
      ],
      "min": [
        -1.378890283376677e-05,
        -0.8299778699874878,
        -0.9929201602935791,
        1.0
      ],
      "type": "VEC4"
    },
    {
      "bufferView": 1,
      "byteOffset": 232512,
      "componentType": 5126,
      "count": 408,
      "max": [
        0.990032434463501,
        0.9965878129005432
      ],
      "min": [
        0.0020391365978866816,
        0.0020754882134497166
      ],
      "type": "VEC2"
    },
    {
      "bufferView": 0,
      "byteOffset": 460524,
      "componentType": 5125,
      "count": 1680,
      "type": "SCALAR"
    },
    {
      "bufferView": 2,
      "byteOffset": 707328,
      "componentType": 5126,
      "count": 1114,
      "max": [
        0.08623045682907104,
        0.5810219049453735,
        -0.03309314325451851
      ],
      "min": [
        -0.08623045682907104,
        0.1822839230298996,
        -0.4580041170120239
      ],
      "type": "VEC3"
    },
    {
      "bufferView": 2,
      "byteOffset": 720696,
      "componentType": 5126,
      "count": 1114,
      "max": [
        0.9999942779541016,
        0.9720028042793274,
        0.999849796295166
      ],
      "min": [
        -0.9999942779541016,
        -0.9999921917915344,
        -0.9997432827949524
      ],
      "type": "VEC3"
    },
    {
      "bufferView": 3,
      "byteOffset": 471552,
      "componentType": 5126,
      "count": 1114,
      "max": [
        1.0,
        0.9783830642700195,
        0.999911904335022,
        1.0
      ],
      "min": [
        -1.0,
        -0.8885220885276794,
        -0.32876861095428467,
        -1.0
      ],
      "type": "VEC4"
    },
    {
      "bufferView": 1,
      "byteOffset": 235776,
      "componentType": 5126,
      "count": 1114,
      "max": [
        0.6635425686836243,
        0.4220733046531677
      ],
      "min": [
        0.0016292918007820845,
        0.0016259030671790242
      ],
      "type": "VEC2"
    },
    {
      "bufferView": 0,
      "byteOffset": 467244,
      "componentType": 5125,
      "count": 6144,
      "type": "SCALAR"
    }
  ],
  "asset": {
    "extras": {
      "author": "re1monsen (https://sketchfab.com/re1monsen)",
      "license": "CC-BY-4.0 (http://creativecommons.org/licenses/by/4.0/)",
      "source": "https://sketchfab.com/3d-models/revolver-740998352a1d4894b3c220413d98e2bd",
      "title": "Revolver"
    },
    "generator": "Sketchfab-16.60.0",
    "version": "2.0"
  },
  "bufferViews": [
    {
      "buffer": 0,
      "byteLength": 491820,
      "name": "floatBufferViews",
      "target": 34963
    },
    {
      "buffer": 0,
      "byteLength": 244688,
      "byteOffset": 491820,
      "byteStride": 8,
      "name": "floatBufferViews",
      "target": 34962
    },
    {
      "buffer": 0,
      "byteLength": 734064,
      "byteOffset": 736508,
      "byteStride": 12,
      "name": "floatBufferViews",
      "target": 34962
    },
    {
      "buffer": 0,
      "byteLength": 489376,
      "byteOffset": 1470572,
      "byteStride": 16,
      "name": "floatBufferViews",
      "target": 34962
    }
  ],
  "buffers": [
    {
      "byteLength": 1959948,
      "uri": "scene.bin"
    }
  ],
  "extensionsUsed": [
    "KHR_materials_specular"
  ],
  "images": [
    {
      "uri": "textures/M_Gun_01_baseColor.png"
    },
    {
      "uri": "textures/M_Gun_01_metallicRoughness.png"
    },
    {
      "uri": "textures/M_Gun_01_normal.png"
    }
  ],
  "materials": [
    {
      "doubleSided": true,
      "extensions": {
        "KHR_materials_specular": {
          "specularColorFactor": [
            1.0,
            1.0,
            1.0
          ],
          "specularFactor": 0.4
        }
      },
      "name": "M_Gun_01",
      "normalTexture": {
        "index": 2
      },
      "pbrMetallicRoughness": {
        "baseColorTexture": {
          "index": 0
        },
        "metallicRoughnessTexture": {
          "index": 1
        }
      }
    }
  ],
  "meshes": [
    {
      "name": "OUT_GUN_FINAL_M_Gun_01_0",
      "primitives": [
        {
          "attributes": {
            "NORMAL": 1,
            "POSITION": 0,
            "TANGENT": 2,
            "TEXCOORD_0": 3
          },
          "indices": 4,
          "material": 0,
          "mode": 4
        }
      ]
    },
    {
      "name": "OUT_GUN_FINAL.001_M_Gun_01_0",
      "primitives": [
        {
          "attributes": {
            "NORMAL": 6,
            "POSITION": 5,
            "TANGENT": 7,
            "TEXCOORD_0": 8
          },
          "indices": 9,
          "material": 0,
          "mode": 4
        }
      ]
    },
    {
      "name": "OUT_GUN_FINAL.002_M_Gun_01_0",
      "primitives": [
        {
          "attributes": {
            "NORMAL": 11,
            "POSITION": 10,
            "TANGENT": 12,
            "TEXCOORD_0": 13
          },
          "indices": 14,
          "material": 0,
          "mode": 4
        }
      ]
    },
    {
      "name": "OUT_GUN_FINAL.003_M_Gun_01_0",
      "primitives": [
        {
          "attributes": {
            "NORMAL": 16,
            "POSITION": 15,
            "TANGENT": 17,
            "TEXCOORD_0": 18
          },
          "indices": 19,
          "material": 0,
          "mode": 4
        }
      ]
    },
    {
      "name": "OUT_GUN_FINAL.004_M_Gun_01_0",
      "primitives": [
        {
          "attributes": {
            "NORMAL": 21,
            "POSITION": 20,
            "TANGENT": 22,
            "TEXCOORD_0": 23
          },
          "indices": 24,
          "material": 0,
          "mode": 4
        }
      ]
    },
    {
      "name": "OUT_GUN_FINAL.005_M_Gun_01_0",
      "primitives": [
        {
          "attributes": {
            "NORMAL": 26,
            "POSITION": 25,
            "TANGENT": 27,
            "TEXCOORD_0": 28
          },
          "indices": 29,
          "material": 0,
          "mode": 4
        }
      ]
    },
    {
      "name": "OUT_GUN_FINAL.006_M_Gun_01_0",
      "primitives": [
        {
          "attributes": {
            "NORMAL": 31,
            "POSITION": 30,
            "TANGENT": 32,
            "TEXCOORD_0": 33
          },
          "indices": 34,
          "material": 0,
          "mode": 4
        }
      ]
    },
    {
      "name": "OUT_GUN_FINAL.007_M_Gun_01_0",
      "primitives": [
        {
          "attributes": {
            "NORMAL": 36,
            "POSITION": 35,
            "TANGENT": 37,
            "TEXCOORD_0": 38
          },
          "indices": 39,
          "material": 0,
          "mode": 4
        }
      ]
    }
  ],
  "nodes": [
    {
      "children": [
        1
      ],
      "matrix": [
        -0.014627077616751194,
        0.9998930096626282,
        -3.886018152459973e-16,
        0.0,
        0.9998930096626282,
        0.014627077616751194,
        -1.0777443879189637e-16,
        0.0,
        -5.551115123125783e-17,
        -3.3306690738754696e-16,
        -1.0,
        0.0,
        0.0,
        0.0,
        0.0,
        1.0
      ],
      "name": "Sketchfab_model"
    },
    {
      "children": [
        2
      ],
      "matrix": [
        0.009999999776482582,
        0.0,
        0.0,
        0.0,
        0.0,
        0.0,
        0.009999999776482582,
        0.0,
        0.0,
        -0.009999999776482582,
        0.0,
        0.0,
        0.0,
        0.0,
        0.0,
        1.0
      ],
      "name": "e7e8721ff4f942d089c75800349026d2.fbx"
    },
    {
      "children": [
        3,
        5,
        7,
        9,
        11,
        13,
        15,
        17
      ],
      "name": "RootNode"
    },
    {
      "children": [
        4
      ],
      "matrix": [
        100.0,
        0.0,
        0.0,
        0.0,
        0.0,
        -1.629206793918314e-05,
        -99.99999999999868,
        0.0,
        0.0,
        99.99999999999868,
        -1.629206793918314e-05,
        0.0,
        0.0,
        0.0,
        0.0,
        1.0
      ],
      "name": "OUT_GUN_FINAL"
    },
    {
      "mesh": 0,
      "name": "OUT_GUN_FINAL_M_Gun_01_0"
    },
    {
      "children": [
        6
      ],
      "matrix": [
        100.0,
        0.0,
        0.0,
        0.0,
        0.0,
        -1.629206793918314e-05,
        -99.99999999999868,
        0.0,
        0.0,
        99.99999999999868,
        -1.629206793918314e-05,
        0.0,
        0.0,
        0.0,
        0.0,
        1.0
      ],
      "name": "OUT_GUN_FINAL.001"
    },
    {
      "mesh": 1,
      "name": "OUT_GUN_FINAL.001_M_Gun_01_0"
    },
    {
      "children": [
        8
      ],
      "matrix": [
        100.0,
        0.0,
        0.0,
        0.0,
        0.0,
        -1.629206793918314e-05,
        -99.99999999999868,
        0.0,
        0.0,
        99.99999999999868,
        -1.629206793918314e-05,
        0.0,
        0.0,
        0.0,
        0.0,
        1.0
      ],
      "name": "OUT_GUN_FINAL.002"
    },
    {
      "mesh": 2,
      "name": "OUT_GUN_FINAL.002_M_Gun_01_0"
    },
    {
      "children": [
        10
      ],
      "matrix": [
        100.0,
        0.0,
        0.0,
        0.0,
        0.0,
        -1.629206793918314e-05,
        -99.99999999999868,
        0.0,
        0.0,
        99.99999999999868,
        -1.629206793918314e-05,
        0.0,
        0.0,
        0.0,
        0.0,
        1.0
      ],
      "name": "OUT_GUN_FINAL.003"
    },
    {
      "mesh": 3,
      "name": "OUT_GUN_FINAL.003_M_Gun_01_0"
    },
    {
      "children": [
        12
      ],
      "matrix": [
        100.0,
        0.0,
        0.0,
        0.0,
        0.0,
        -1.629206793918314e-05,
        -99.99999999999868,
        0.0,
        0.0,
        99.99999999999868,
        -1.629206793918314e-05,
        0.0,
        0.0,
        0.0,
        0.0,
        1.0
      ],
      "name": "OUT_GUN_FINAL.004"
    },
    {
      "mesh": 4,
      "name": "OUT_GUN_FINAL.004_M_Gun_01_0"
    },
    {
      "children": [
        14
      ],
      "matrix": [
        100.0,
        0.0,
        0.0,
        0.0,
        0.0,
        -1.629206793918314e-05,
        -99.99999999999868,
        0.0,
        0.0,
        99.99999999999868,
        -1.629206793918314e-05,
        0.0,
        0.0,
        0.0,
        0.0,
        1.0
      ],
      "name": "OUT_GUN_FINAL.005"
    },
    {
      "mesh": 5,
      "name": "OUT_GUN_FINAL.005_M_Gun_01_0"
    },
    {
      "children": [
        16
      ],
      "matrix": [
        100.0,
        0.0,
        0.0,
        0.0,
        0.0,
        -1.629206793918314e-05,
        -99.99999999999868,
        0.0,
        0.0,
        99.99999999999868,
        -1.629206793918314e-05,
        0.0,
        0.0,
        0.0,
        0.0,
        1.0
      ],
      "name": "OUT_GUN_FINAL.006"
    },
    {
      "mesh": 6,
      "name": "OUT_GUN_FINAL.006_M_Gun_01_0"
    },
    {
      "children": [
        18
      ],
      "matrix": [
        100.0,
        0.0,
        0.0,
        0.0,
        0.0,
        -1.629206793918314e-05,
        -99.99999999999868,
        0.0,
        0.0,
        99.99999999999868,
        -1.629206793918314e-05,
        0.0,
        0.0,
        0.0,
        0.0,
        1.0
      ],
      "name": "OUT_GUN_FINAL.007"
    },
    {
      "mesh": 7,
      "name": "OUT_GUN_FINAL.007_M_Gun_01_0"
    }
  ],
  "samplers": [
    {
      "magFilter": 9729,
      "minFilter": 9987,
      "wrapS": 10497,
      "wrapT": 10497
    }
  ],
  "scene": 0,
  "scenes": [
    {
      "name": "Sketchfab_Scene",
      "nodes": [
        0
      ]
    }
  ],
  "textures": [
    {
      "sampler": 0,
      "source": 0
    },
    {
      "sampler": 0,
      "source": 1
    },
    {
      "sampler": 0,
      "source": 2
    }
  ]
}
